<svg width="500" height="500" viewBox="0 0 500 500" fill="none" xmlns="http://www.w3.org/2000/svg">
<path fill-rule="evenodd" clip-rule="evenodd" d="M95.5916 263.972C79.2527 273.241 61.4521 280.492 42.2609 280.492C33.8325 280.492 27 273.666 27 265.246C27 256.826 33.8325 250 42.2609 250C53.7823 250 66.122 245.625 80.5195 237.457C92.2531 230.801 104.126 222.378 117.25 213.069C120.378 210.851 123.576 208.582 126.86 206.275C159.891 183.071 200.07 157 250.191 157C300.298 157 340.658 183.055 373.751 206.269C377.212 208.696 380.576 211.081 383.86 213.41C396.808 222.59 408.517 230.891 420.056 237.476C434.406 245.665 446.554 250 457.739 250C466.167 250 473 256.826 473 265.246C473 273.666 466.167 280.492 457.739 280.492C438.784 280.492 421.125 273.202 404.918 263.953C391.941 256.548 378.65 247.118 365.579 237.844C362.442 235.618 359.317 233.401 356.212 231.223C323.015 207.937 289.741 187.492 250.191 187.492C210.654 187.492 177.58 207.921 144.417 231.217C141.455 233.298 138.473 235.414 135.479 237.54C122.269 246.917 108.804 256.477 95.5916 263.972Z" fill="#FFFFFF"/>
<path fill-rule="evenodd" clip-rule="evenodd" d="M365.832 202.98C374.126 204.475 379.637 212.405 378.14 220.691C373.302 247.476 363.139 277.455 343.589 301.033C323.571 325.174 294.255 341.857 253.624 341.857C212.623 341.857 180.089 322.594 158.12 298.036C136.5 273.868 123.907 243.227 123.907 217.984C123.907 209.564 130.739 202.738 139.168 202.738C147.596 202.738 154.429 209.564 154.429 217.984C154.429 234.285 163.201 257.958 180.878 277.717C198.205 297.087 222.9 311.365 253.624 311.365C284.72 311.365 305.574 299.08 320.084 281.581C335.062 263.518 343.785 239.184 348.103 215.276C349.6 206.99 357.537 201.485 365.832 202.98Z" fill="#ffffff"/>
<path fill-rule="evenodd" clip-rule="evenodd" d="M418.362 296.972C420.419 305.137 415.461 313.423 407.287 315.478C393.23 319.012 381.419 322.521 370.412 325.791C337.96 335.434 312.496 343 257.058 343C221.432 343 200.254 339.063 179.037 335.119C178.015 334.929 176.993 334.74 175.969 334.55C154.392 330.555 131.438 326.611 89.5697 326.611C81.1413 326.611 74.3088 319.785 74.3088 311.365C74.3088 302.945 81.1413 296.119 89.5697 296.119C133.925 296.119 158.852 300.369 181.532 304.569C182.544 304.756 183.549 304.943 184.551 305.129C205.307 308.987 224.257 312.508 257.058 312.508C307.811 312.508 328.795 306.277 359.926 297.034C371.248 293.672 383.912 289.912 399.838 285.908C408.012 283.853 416.305 288.806 418.362 296.972Z" fill="#ffffff"/>
<path d="M285.291 244.664C285.291 264.03 269.576 279.73 250.191 279.73C230.806 279.73 215.091 264.03 215.091 244.664C215.091 225.298 230.806 209.598 250.191 209.598C269.576 209.598 285.291 225.298 285.291 244.664Z" fill="#ffffff"/>
</svg>
