<svg fill="none" xmlns="http://www.w3.org/2000/svg" width="746px" height="564px" viewBox="0 0 746 564"><path d="M346 1c152-3 336-2 387 141 52 149-72 290-205 376a313 313 0 01-350-18C63 420-34 292 11 159 55 30 210 5 346 1z" fill="#fff"/><path fill-rule="evenodd" clip-rule="evenodd" d="M101 278L217 65c2-4 5-6 9-7s8-1 11 1l240 147c3 2 6 6 7 9 1 4 0 8-2 12L366 440c-2 4-5 6-9 7-3 1-7 1-10-1L106 299c-3-2-5-6-6-9-1-4-1-8 1-12zm282-76c15 9 21 30 12 47-9 16-29 22-45 12-4-2-7-5-10-9a36 36 0 01-2-38 32 32 0 0145-12zm-225 19l-34 62 64 39 109-31-24-96-115 26zm57 117l135 83 28-51-24-71-139 39z" fill="#7B7B7B"/></svg>