<svg width="156" height="50" viewBox="0 0 156 50" fill="none" xmlns="http://www.w3.org/2000/svg">
<path d="M63.5864 23.8754H73.0853C77.5981 23.8754 80.5699 22.054 80.5699 18.4112C80.5699 15.6792 79.139 14.3406 76.8386 13.4628C78.2695 12.6619 79.4692 11.411 79.4692 9.16174C79.4692 7.73537 79.007 6.62718 78.0934 5.71649C76.9487 4.57539 75.1436 3.94998 72.8761 3.94998H63.5974L63.5864 23.8754ZM67.868 12.0035V7.79023H72.2047C74.0649 7.79023 75.0885 8.52536 75.0885 9.84201C75.0885 11.3781 73.8558 12.0035 71.9186 12.0035H67.868ZM67.868 20.0242V15.6463H72.9422C75.1986 15.6463 76.2002 16.4692 76.2002 17.8078C76.2002 19.3439 75.0335 20.0242 73.0853 20.0242H67.868ZM84.1912 23.8754H99.4137V19.9693H88.5609V15.7889H97.9828V11.8828H88.5609V7.84509H99.2596V3.94998H84.1802L84.1912 23.8754ZM103.321 23.8754H117.674V19.8925H107.702V3.94998H103.31L103.321 23.8754ZM124.08 24.018H127.954L136.044 3.94998H131.3L126.072 17.9833L120.855 3.94998H116.001L124.08 24.018ZM147.459 24.2045C151.113 24.2045 153.942 22.7782 156 21.0446V12.3985H147.315V16.1839H151.74V19.0257C150.628 19.8267 149.187 20.2217 147.602 20.2217C144.057 20.2217 141.548 17.5445 141.548 13.9017C141.548 10.4455 144.09 7.63662 147.282 7.63662C149.594 7.63662 150.97 8.37175 152.5 9.66646L155.273 6.33093C153.193 4.56442 151.014 3.59887 147.426 3.59887C141.372 3.59887 136.947 8.24008 136.947 13.9017C136.958 19.8596 141.24 24.2045 147.459 24.2045ZM63.5864 35.9886H64.3238V33.1359H67.879V32.4556H64.3238V30.1185H68.3083V29.4382H63.5864V35.9886ZM72.645 36.0983C74.6482 36.0983 76.0021 34.5183 76.0021 32.7079C76.0021 30.8866 74.6593 29.3176 72.656 29.3176C70.6528 29.3176 69.2989 30.8975 69.2989 32.7079C69.3099 34.5403 70.6528 36.0983 72.645 36.0983ZM72.667 35.429C71.1591 35.429 70.0804 34.2111 70.0804 32.7299C70.0804 31.2267 71.1481 30.0307 72.645 30.0307C74.1529 30.0307 75.2316 31.2486 75.2316 32.7299C75.2426 34.2221 74.175 35.429 72.667 35.429ZM77.5761 35.9886H78.3135V33.4431H80.1957L82.0999 35.9886H83.0135L80.9882 33.3114C82.0228 33.1249 82.7713 32.4885 82.7713 31.4023C82.7713 30.8646 82.5732 30.4148 82.265 30.0966C81.8577 29.6796 81.2083 29.4382 80.3938 29.4382H77.5651L77.5761 35.9886ZM78.3245 32.7847V30.1185H80.3608C81.4175 30.1185 82.0449 30.6013 82.0449 31.4132C82.0449 32.2691 81.3294 32.7847 80.3498 32.7847H78.3245ZM89.4304 36.0764C90.7403 36.0764 91.6758 35.3522 91.6758 34.2221C91.6758 33.2017 90.9934 32.675 89.5295 32.3459C88.0876 32.0277 87.7464 31.6875 87.7464 31.0731C87.7464 30.4696 88.2967 29.9978 89.1443 29.9978C89.8267 29.9978 90.4321 30.2063 91.0484 30.711L91.4777 30.1405C90.8173 29.6028 90.1239 29.3285 89.1773 29.3285C87.9335 29.3285 87.0199 30.0856 87.0199 31.117C87.0199 32.2142 87.7134 32.697 89.2213 33.0261C90.5972 33.3114 90.9274 33.6625 90.9274 34.266C90.9274 34.9353 90.344 35.3961 89.4635 35.3961C88.5499 35.3961 87.9005 35.0779 87.2071 34.4745L86.7448 35.0231C87.5483 35.7362 88.3848 36.0764 89.4304 36.0764ZM95.8254 36.0874C97.4654 36.0874 98.5661 35.0999 98.5661 33.1907V29.4382H97.8287V33.2456C97.8287 34.6829 97.0582 35.4071 95.8474 35.4071C94.5926 35.4071 93.8332 34.6171 93.8332 33.2017V29.4382H93.0957V33.2456C93.0847 35.0999 94.1964 36.0874 95.8254 36.0874ZM103.321 36.0983C104.521 36.0983 105.269 35.6704 105.952 34.9901L105.467 34.4745C104.84 35.0669 104.246 35.4181 103.343 35.4181C101.901 35.4181 100.79 34.2221 100.79 32.7189C100.79 31.1938 101.879 30.0198 103.343 30.0198C104.235 30.0198 104.851 30.3928 105.401 30.9195L105.886 30.3928C105.225 29.7784 104.532 29.3285 103.332 29.3285C101.406 29.3285 100.008 30.8646 100.008 32.7189C100.019 34.6171 101.428 36.0983 103.321 36.0983ZM110.068 36.0983C111.257 36.0983 112.005 35.6704 112.699 34.9901L112.215 34.4745C111.587 35.0669 110.993 35.4181 110.09 35.4181C108.648 35.4181 107.537 34.2221 107.537 32.7189C107.537 31.1938 108.626 30.0198 110.09 30.0198C110.982 30.0198 111.598 30.3928 112.149 30.9195L112.633 30.3928C111.972 29.7784 111.279 29.3285 110.079 29.3285C108.153 29.3285 106.755 30.8646 106.755 32.7189C106.766 34.6171 108.164 36.0983 110.068 36.0983ZM118.775 35.9886V35.3083H114.724V33.0261H118.312V32.3459H114.724V30.1075H118.731V29.4273H113.976V35.9886H118.775ZM122.539 36.0764C123.849 36.0764 124.784 35.3522 124.784 34.2221C124.784 33.2017 124.102 32.675 122.638 32.3459C121.196 32.0277 120.855 31.6875 120.855 31.0731C120.855 30.4696 121.405 29.9978 122.253 29.9978C122.935 29.9978 123.541 30.2063 124.157 30.711L124.597 30.1405C123.926 29.6028 123.243 29.3285 122.286 29.3285C121.042 29.3285 120.129 30.0856 120.129 31.117C120.129 32.2142 120.822 32.697 122.33 33.0261C123.706 33.3114 124.047 33.6625 124.047 34.266C124.047 34.9353 123.464 35.3961 122.583 35.3961C121.669 35.3961 121.009 35.0779 120.327 34.4745L119.864 35.0231C120.635 35.7362 121.493 36.0764 122.539 36.0764ZM128.45 36.0764C129.76 36.0764 130.695 35.3522 130.695 34.2221C130.695 33.2017 130.013 32.675 128.549 32.3459C127.107 32.0277 126.766 31.6875 126.766 31.0731C126.766 30.4696 127.316 29.9978 128.164 29.9978C128.846 29.9978 129.451 30.2063 130.068 30.711L130.497 30.1405C129.826 29.6028 129.143 29.3285 128.186 29.3285C126.942 29.3285 126.028 30.0856 126.028 31.117C126.028 32.2142 126.722 32.697 128.23 33.0261C129.605 33.3114 129.936 33.6625 129.936 34.266C129.936 34.9353 129.352 35.3961 128.472 35.3961C127.558 35.3961 126.909 35.0779 126.215 34.4745L125.753 35.0231C126.546 35.7362 127.404 36.0764 128.45 36.0764ZM132.203 35.9886H132.94V33.1359H136.496V32.4556H132.94V30.1185H136.925V29.4382H132.203V35.9886ZM140.986 36.0874C142.627 36.0874 143.727 35.0999 143.727 33.1907V29.4382H142.99V33.2456C142.99 34.6829 142.219 35.4071 141.008 35.4071C139.754 35.4071 138.994 34.6171 138.994 33.2017V29.4382H138.257V33.2456C138.257 35.0999 139.357 36.0874 140.986 36.0874ZM145.488 35.9886H149.924V35.3083H146.226V29.4382H145.488V35.9886ZM68.3744 46.3463V45.666H64.3238V43.3838H67.9121V42.7036H64.3238V40.4652H68.3303V39.785H63.5754V46.3463H68.3744ZM69.5521 43.9105H72.1607V43.1534H69.5521V43.9105ZM76.7065 46.467C77.8953 46.467 78.6437 46.0391 79.3372 45.3588L78.8529 44.8431C78.2255 45.4356 77.6201 45.7867 76.7285 45.7867C75.2866 45.7867 74.175 44.5908 74.175 43.0876C74.175 41.5625 75.2646 40.3884 76.7285 40.3884C77.6201 40.3884 78.2365 40.7615 78.7868 41.2881L79.2711 40.7615C78.6107 40.147 77.9173 39.6972 76.7175 39.6972C74.7913 39.6972 73.3935 41.2333 73.3935 43.0876C73.4155 44.9748 74.8134 46.467 76.7065 46.467ZM83.4977 46.467C85.501 46.467 86.8548 44.887 86.8548 43.0766C86.8548 41.2552 85.512 39.6862 83.5088 39.6862C81.5055 39.6862 80.1517 41.2662 80.1517 43.0766C80.1517 44.898 81.4945 46.467 83.4977 46.467ZM83.5088 45.7757C82.0008 45.7757 80.9221 44.5578 80.9221 43.0766C80.9221 41.5734 81.9898 40.3775 83.4867 40.3775C84.9947 40.3775 86.0734 41.5954 86.0734 43.0766C86.0844 44.5798 85.0167 45.7757 83.5088 45.7757ZM88.4288 46.3463H89.1443V41.0577L91.5438 44.5578H91.5878L93.9873 41.0468V46.3463H94.7247V39.7959H93.9763L91.5768 43.3729L89.1883 39.7959H88.4398L88.4288 46.3463ZM96.5739 46.3463H97.2893V41.0577L99.6888 44.5578H99.7218L102.121 41.0468V46.3463H102.859V39.7959H102.11L99.7108 43.3729L97.3113 39.7959H96.5629L96.5739 46.3463ZM104.73 46.3463H109.518V45.666H105.467V43.3838H109.056V42.7036H105.467V40.4652H109.474V39.785H104.719L104.73 46.3463ZM111.015 46.3463H111.752V43.8008H113.634L115.539 46.3463H116.452L114.427 43.6691C115.462 43.4716 116.21 42.8352 116.21 41.7599C116.21 41.2223 116.012 40.7725 115.704 40.4433C115.286 40.0264 114.647 39.785 113.833 39.785H111.015V46.3463ZM111.752 43.1315V40.4872H113.789C114.845 40.4872 115.462 40.97 115.462 41.7819C115.462 42.6377 114.757 43.1534 113.778 43.1534L111.752 43.1315ZM120.8 46.467C122 46.467 122.748 46.0391 123.431 45.3588L122.946 44.8431C122.319 45.4356 121.725 45.7867 120.822 45.7867C119.38 45.7867 118.268 44.5908 118.268 43.0876C118.268 41.5625 119.358 40.3884 120.822 40.3884C121.714 40.3884 122.33 40.7615 122.891 41.2881L123.376 40.7615C122.715 40.147 122.022 39.6972 120.822 39.6972C118.896 39.6972 117.498 41.2333 117.498 43.0876C117.509 44.9748 118.907 46.467 120.8 46.467ZM129.517 46.3463V45.666H125.467V43.3838H129.055V42.7036H125.467V40.4652H129.473V39.785H124.718V46.3463H129.517Z" fill="white"/>
<path fill-rule="evenodd" clip-rule="evenodd" d="M0 0H51.9853V50H0V0ZM5.0412 5.59587C5.0412 5.92504 4.92013 6.18837 4.64495 6.37489C4.24871 6.62725 3.84145 6.6492 3.41219 6.66017H2.28949V1.52521H3.07098C3.14239 1.52521 3.21657 1.52247 3.29189 1.51968C3.55323 1.51 3.82844 1.49981 4.05058 1.60202C4.33676 1.72271 4.54589 1.97507 4.54589 2.30423C4.54589 2.60048 4.36978 2.9077 4.0836 3.03937C3.89649 3.12714 3.65434 3.14909 3.41219 3.16006V4.60838H3.45621C3.47643 4.60838 3.49661 4.60835 3.51675 4.60831C3.85861 4.60774 4.19065 4.60718 4.51287 4.77296C4.85408 4.97046 5.0412 5.20088 5.0412 5.59587ZM14.1879 48.9906H1.0127V43.6253L14.1879 48.9906ZM11.117 1.59104C12.1846 1.59104 13.0762 2.21646 13.4064 3.19298L13.4834 3.40145H8.71749L8.78353 3.20395C9.06971 2.27132 10.0603 1.59104 11.117 1.59104ZM27.7373 1.2948C19.8674 9.1289 19.7133 19.6841 27.6383 27.584C34.4845 34.4087 43.6312 35.0341 50.9618 29.6468V48.9906H30.2909L30.5441 48.7383L16.5654 14.0334L9.67508 20.902L18.5796 41.5735L1.0127 34.0247V8.09752H3.31313C4.0836 8.07557 4.90912 8.04266 5.54751 7.57086C6.1639 7.11003 6.52712 6.44073 6.52712 5.6617C6.52712 4.75102 6.03182 4.00491 5.15127 3.71964C5.73463 3.44533 6.03182 2.81992 6.03182 2.19451C6.03182 1.7666 5.88873 1.36063 5.63557 1.02049H8.56339C7.69385 1.75563 7.14351 2.86381 7.14351 4.13658C7.14351 6.30906 8.92662 8.07557 11.117 8.07557C12.5919 8.07557 14.0888 7.13197 14.6392 5.89212H12.8671C12.4488 6.30906 11.7664 6.57239 11.0399 6.57239C10.0163 6.57239 9.11373 5.92504 8.81655 4.95949L8.75051 4.75102H14.9143C14.9253 4.72907 14.9253 4.7181 14.9253 4.70713C14.9268 4.69615 14.9284 4.68519 14.9299 4.67425C14.9613 4.4448 14.9914 4.22534 14.9914 4.01588C14.9914 2.83089 14.441 1.74465 13.5935 1.00952H16.0811V8.09752H21.8376V6.6492H17.567V1.02049H28.0235C27.9244 1.10827 27.8364 1.19605 27.7373 1.2948ZM42.0792 5.63976L44.8309 1.00952H50.9728V1.22896L39.0634 13.0789L44.0495 18.0492L49.2227 12.8923C51.7873 15.9645 51.1048 19.4756 48.3531 22.2186C44.1815 26.3771 38.0617 24.7971 34.2754 21.0227C30.5551 17.3141 28.7499 11.1807 32.9215 7.02225C35.4751 4.47671 38.8762 4.19144 42.0792 5.63976Z" fill="white"/>
</svg>
