<svg width="17" height="17" viewBox="0 0 17 17" fill="none" xmlns="http://www.w3.org/2000/svg">
<path d="M14.5717 0C14.2364 0 13.9645 0.271827 13.9645 0.607154V2.82503C10.8387 -0.201211 5.85155 -0.120456 2.82531 3.00532C1.39912 4.47843 0.603488 6.4496 0.607437 8.49998C0.607437 8.83531 0.879263 9.10714 1.21459 9.10714C1.54992 9.10714 1.82171 8.83531 1.82171 8.49998C1.82246 4.81152 4.81312 1.822 8.50162 1.82274C10.3749 1.8231 12.1618 2.61019 13.4267 3.99195L10.737 4.88868C10.4185 4.99466 10.2461 5.33877 10.3521 5.65731C10.4581 5.97585 10.8022 6.14821 11.1207 6.04223L14.7636 4.82796C15.0123 4.74514 15.1797 4.51205 15.1789 4.24997V0.607119C15.1789 0.271827 14.907 0 14.5717 0Z" fill="#FF3366"/>
<path d="M15.7856 7.89258C15.4503 7.89258 15.1785 8.1644 15.1785 8.49973C15.1777 12.1882 12.1871 15.1777 8.49857 15.177C6.62531 15.1766 4.83835 14.3895 3.57353 13.0078L6.26316 12.111C6.58169 12.0051 6.75405 11.6609 6.64807 11.3424C6.5421 11.0239 6.19798 10.8515 5.87945 10.9575L2.23659 12.1718C1.98792 12.2546 1.82047 12.4877 1.82129 12.7497V16.3926C1.82129 16.7279 2.09312 16.9998 2.42845 16.9998C2.76377 16.9998 3.0356 16.7279 3.0356 16.3926V14.1747C6.16141 17.2009 11.1486 17.1202 14.1748 13.9944C15.601 12.5213 16.3967 10.5501 16.3927 8.49973C16.3928 8.1644 16.121 7.89258 15.7856 7.89258Z" fill="#FF3366"/>
</svg>
