<svg width="32" height="30" viewBox="0 0 32 30" fill="none" xmlns="http://www.w3.org/2000/svg">
<path d="M9.99417 25V10.8313H5.27824V25H9.99417ZM7.63682 8.89568C9.28134 8.89568 10.305 7.8077 10.305 6.44807C10.2743 5.05779 9.28141 4 7.66802 4C6.05489 4 5 5.05781 5 6.44807C5 7.80776 6.02339 8.89568 7.60603 8.89568H7.63667H7.63682ZM12.6044 25H17.3204V17.0875C17.3204 16.6641 17.351 16.241 17.4755 15.9383C17.8165 15.0923 18.5924 14.216 19.8952 14.216C21.6017 14.216 22.2844 15.5153 22.2844 17.42V24.9999H27V16.8757C27 12.5237 24.6734 10.4987 21.5706 10.4987C19.0266 10.4987 17.9095 11.9188 17.289 12.886H17.3205V10.831H12.6045C12.6664 12.1606 12.6045 24.9997 12.6045 24.9997L12.6044 25Z" fill="black"/>
</svg>
