<svg width="31" height="30" viewBox="0 0 31 30" fill="none" xmlns="http://www.w3.org/2000/svg">
<path d="M18.426 14.0086L18.4259 14.0085C18.2225 13.5329 18.0061 13.0571 17.7792 12.5909C21.2881 11.132 23.0333 9.13228 23.4573 8.59348C24.8221 10.3036 25.6556 12.454 25.7029 14.795C24.9856 14.6521 21.8227 14.0868 18.6202 14.4754C18.5565 14.3201 18.4924 14.1644 18.426 14.0086ZM15.3958 25.3238H15.3955C13.0398 25.3238 10.8684 24.5314 9.13226 23.198C9.47339 22.5384 11.6251 18.7746 17.1796 16.8285C18.5745 20.4759 19.1743 23.5418 19.347 24.5364C18.0959 25.0597 16.7525 25.3276 15.3958 25.3238ZM15.3955 2.7125C8.61958 2.7125 3.10801 8.22407 3.10801 15C3.10801 21.7759 8.61958 27.2875 15.3955 27.2875C22.1714 27.2875 27.683 21.7759 27.683 15C27.683 8.22407 22.1714 2.7125 15.3955 2.7125ZM15.3955 4.70547C17.9829 4.70547 20.3496 5.66465 22.1604 7.24246C21.8254 7.69055 20.2669 9.57549 16.8859 10.8649C15.3162 7.99229 13.6034 5.60554 13.1262 4.95818C13.8711 4.78971 14.6307 4.70547 15.3955 4.70547ZM10.9369 5.72167C11.3309 6.26364 13.0553 8.68531 14.6764 11.5525C10.1603 12.7325 6.17006 12.788 5.3268 12.7857C6.01905 9.66646 8.12582 7.07572 10.9369 5.72167ZM5.08633 15.0146C5.08633 14.943 5.0877 14.8699 5.08951 14.7968C5.93685 14.8065 10.7077 14.7929 15.6402 13.3325C15.9068 13.8554 16.1612 14.3849 16.397 14.9146C16.2954 14.9439 16.194 14.9748 16.0942 15.0074C11.0087 16.6554 8.1653 20.9639 7.64574 21.8077C6.05372 19.992 5.08633 17.6152 5.08633 15.0146ZM25.56 16.74C25.0917 19.517 23.5084 21.9225 21.2831 23.4747C21.1296 22.6021 20.5721 19.7584 19.3249 16.3048C22.3331 15.8538 24.9778 16.5661 25.56 16.74Z" fill="black" stroke="black" stroke-width="0.2"/>
</svg>
