<svg width="31" height="30" viewBox="0 0 31 30" fill="none" xmlns="http://www.w3.org/2000/svg">
<path d="M27.583 7.45021C26.6865 7.83693 25.7109 8.11525 24.7061 8.22365C25.7494 7.60383 26.5306 6.62462 26.9033 5.46974C25.9243 6.05213 24.8518 6.46051 23.7334 6.67677C23.266 6.17704 22.7006 5.77894 22.0726 5.50726C21.4445 5.23558 20.7673 5.09616 20.083 5.09767C17.3145 5.09767 15.0879 7.34181 15.0879 10.0957C15.0879 10.4824 15.1348 10.8692 15.2109 11.2412C11.0654 11.0244 7.36816 9.04396 4.91016 6.01173C4.46228 6.77672 4.22758 7.64774 4.23047 8.53419C4.23047 10.2686 5.1123 11.7979 6.45703 12.6973C5.66456 12.6661 4.89065 12.4482 4.19824 12.0615V12.1231C4.19824 14.5518 5.91504 16.5645 8.20312 17.0274C7.77351 17.139 7.33156 17.196 6.8877 17.1973C6.5625 17.1973 6.25488 17.1651 5.94434 17.1211C6.57715 19.1016 8.41992 20.5401 10.6143 20.5869C8.89746 21.9317 6.74707 22.7227 4.41211 22.7227C3.99316 22.7227 3.60645 22.708 3.20508 22.6611C5.41992 24.082 8.04785 24.9024 10.8779 24.9024C20.0654 24.9024 25.0928 17.291 25.0928 10.6846C25.0928 10.4678 25.0928 10.251 25.0781 10.0342C26.0508 9.32228 26.9033 8.44044 27.583 7.45021Z" fill="black"/>
</svg>
