<svg width="30" height="30" viewBox="0 0 30 30" fill="none" xmlns="http://www.w3.org/2000/svg">
<path d="M19.9827 8.19067H27.4687V9.92648H19.9827V8.19067ZM12.4818 15.0586C14.1366 14.3019 15.0034 13.1506 15.0034 11.3718C15.0034 7.85356 12.2642 7 9.10095 7H0.395508V24.6593H9.34485C12.6994 24.6593 15.8477 23.1172 15.8477 19.5308C15.8477 17.3144 14.752 15.6754 12.4818 15.0586ZM4.45555 10.0126H8.26418C9.73134 10.0126 11.0484 10.4035 11.0484 12.0317C11.0484 13.5308 10.024 14.1333 8.57187 14.1333H4.45555V10.0126ZM8.7895 21.6611H4.45179V16.798H8.87581C10.6619 16.798 11.7914 17.5117 11.7914 19.3192C11.7914 21.098 10.4443 21.6611 8.7895 21.6611ZM30.3955 18.4513C30.3955 14.6677 28.0803 11.5152 23.8927 11.5152C19.8214 11.5152 17.0522 14.4453 17.0522 18.2863C17.0522 22.2672 19.6751 25 23.8927 25C27.0859 25 29.1535 23.6264 30.1479 20.6964H26.9096C26.5569 21.7902 25.1235 22.364 24.009 22.364C21.8552 22.364 20.7295 21.159 20.7295 19.1112H30.3692C30.3805 18.8996 30.3955 18.6772 30.3955 18.4513ZM20.7295 16.8948C20.8458 15.2128 22.0203 14.162 23.7764 14.162C25.6225 14.162 26.5456 15.1984 26.707 16.8948H20.7295Z" fill="black"/>
</svg>
